<svg version="1.1" id="artwork" xmlns="http://www.w3.org/2000/svg" xmlns:xlink="http://www.w3.org/1999/xlink" x="0px" y="0px" width="1275.591px" height="1275.574px" viewBox="0 0 1275.591 1275.574" enable-background="new 0 0 1275.591 1275.574" xml:space="preserve">
<g>
	<polygon fill="#FFFFFF" points="909.921,586.771 909.921,586.769 1037.479,654.801 1045.983,654.803 1043.149,660.471    1097.007,858.896  "/>
	<polygon fill="#DD4814" points="909.921,586.771 841.89,595.275 805.038,705.826 853.228,813.542 881.575,875.904    1011.968,1165.037 943.937,799.369  "/>
	<polygon fill="#DD4814" points="561.259,595.275 622.204,773.857 584.646,854.644 535.747,960.944 433.702,1182.044 501.731,867.4     "/>
	<polygon fill="#FFFFFF" points="450.708,671.809 671.811,586.772 433.702,1182.047  "/>
	<polygon fill="#DD4814" points="399.685,314.646 306.142,306.141 450.708,671.805 450.708,671.809 603.778,756.85 671.81,586.771     "/>
	<polygon fill="#DD4814" points="212.598,484.724 187.086,416.693 297.638,306.14 399.685,323.15 459.214,374.173  "/>
	<polygon fill="#FFFFFF" points="297.638,297.636 399.687,314.644 450.71,671.809  "/>
	<polygon fill="#FFFFFF" points="297.638,297.638 297.638,297.638 178.583,416.693 212.599,484.723 331.653,399.685  "/>
	<polygon fill="#DD4814" points="348.659,297.636 229.606,93.543 297.636,297.638 331.653,399.684 348.659,297.636  "/>
	<polygon fill="#DD4814" points="501.731,867.401 501.733,867.397 584.646,854.644 535.749,960.94  "/>
	<polygon fill="#FFFFFF" points="858.897,722.833 841.89,586.771 909.921,586.771 1011.968,646.297 1011.968,1165.037  "/>
	<polygon fill="#DD4814" points="853.228,813.542 943.937,799.37 881.573,875.904  "/>
	<polygon fill="#DD4814" points="858.897,722.834 850.394,595.275 909.921,586.771 1045.983,654.801  "/>
	<polygon fill="#DD4814" points="1003.464,688.819 1045.983,654.801 1097.007,858.896  "/>
	<polygon fill="#FFFFFF" points="501.733,867.401 561.261,595.275 841.89,586.771 909.921,586.771 943.937,799.369 853.228,813.542     "/>
</g>
</svg>
